<svg width="63" height="28" viewBox="0 0 63 28" fill="none" xmlns="http://www.w3.org/2000/svg">
<path d="M19.0742 18.9844H14.1348C14.0879 19.7578 13.959 20.4199 13.748 20.9707C13.5371 21.5215 13.25 21.9727 12.8867 22.3242C12.5234 22.6758 12.084 22.9336 11.5684 23.0977C11.0527 23.2617 10.4727 23.3438 9.82812 23.3438C9.34766 23.3438 8.9082 23.291 8.50977 23.1855C8.12305 23.0684 7.77148 22.8926 7.45508 22.6582C7.16211 22.4473 6.89844 22.1836 6.66406 21.8672C6.44141 21.5508 6.24805 21.1875 6.08398 20.7773C5.84961 20.1797 5.67383 19.4824 5.55664 18.6855C5.45117 17.877 5.39844 16.9629 5.39844 15.9434V12.4629C5.39844 11.7129 5.43359 11.0156 5.50391 10.3711C5.57422 9.71484 5.68555 9.11719 5.83789 8.57812C6.03711 7.88672 6.30078 7.2832 6.62891 6.76758C6.96875 6.24023 7.37891 5.83594 7.85938 5.55469C8.14062 5.39063 8.44531 5.26758 8.77344 5.18555C9.11328 5.10352 9.47656 5.0625 9.86328 5.0625C10.5898 5.0625 11.2109 5.16211 11.7266 5.36133C12.2539 5.54883 12.6934 5.83008 13.0449 6.20508C13.3848 6.5918 13.6426 7.07227 13.8184 7.64648C14.0059 8.2207 14.123 8.88867 14.1699 9.65039H19.0918C18.9746 8.31445 18.6934 7.11328 18.248 6.04688C17.8027 4.98047 17.1934 4.07812 16.4199 3.33984C15.6465 2.60156 14.709 2.0332 13.6074 1.63477C12.5176 1.23633 11.2695 1.03711 9.86328 1.03711C8.91406 1.03711 8.02344 1.16016 7.19141 1.40625C6.37109 1.64062 5.61523 1.98047 4.92383 2.42578C4.15039 2.95312 3.45898 3.59766 2.84961 4.35938C2.24023 5.12109 1.74805 5.98828 1.37305 6.96094C1.04492 7.75781 0.798828 8.625 0.634766 9.5625C0.470703 10.4883 0.388672 11.4668 0.388672 12.498V15.9434C0.388672 17.0449 0.476562 18.0879 0.652344 19.0723C0.839844 20.0566 1.10352 20.959 1.44336 21.7793C1.79492 22.5996 2.22266 23.3496 2.72656 24.0293C3.24219 24.709 3.82812 25.2891 4.48438 25.7695C5.19922 26.2852 6.00195 26.6836 6.89258 26.9648C7.79492 27.2344 8.77344 27.3691 9.82812 27.3691C11.1641 27.3691 12.3828 27.1758 13.4844 26.7891C14.5859 26.3906 15.5352 25.8281 16.332 25.1016C17.1289 24.375 17.7617 23.4961 18.2305 22.4648C18.7109 21.4336 18.9922 20.2734 19.0742 18.9844ZM22.5898 17.3496V17.7188C22.5898 19.1016 22.7598 20.3848 23.0996 21.5684C23.4395 22.7402 23.9316 23.7539 24.5762 24.6094C25.209 25.4648 25.9824 26.1387 26.8965 26.6309C27.8223 27.1113 28.8652 27.3516 30.0254 27.3516C31.0918 27.3516 32.0293 27.1465 32.8379 26.7363C33.6465 26.3262 34.3496 25.752 34.9473 25.0137L35.1934 27H39.6055V0H34.7012V9.68555C34.1152 9.0293 33.4414 8.52539 32.6797 8.17383C31.9297 7.81055 31.0566 7.62891 30.0605 7.62891C28.877 7.62891 27.8223 7.86328 26.8965 8.33203C25.9824 8.80078 25.2031 9.46289 24.5586 10.3184C23.9141 11.1738 23.4219 12.1992 23.082 13.3945C22.7539 14.5898 22.5898 15.9082 22.5898 17.3496ZM27.4766 17.7188V17.3496C27.4766 16.5527 27.5469 15.8086 27.6875 15.1172C27.8281 14.4141 28.0508 13.7988 28.3555 13.2715C28.6602 12.7559 29.0527 12.3516 29.5332 12.0586C30.0254 11.7539 30.6172 11.6016 31.3086 11.6016C32.1406 11.6016 32.832 11.7832 33.3828 12.1465C33.9336 12.498 34.373 12.9961 34.7012 13.6406V21.3398C34.373 21.9727 33.9277 22.4707 33.3652 22.834C32.8145 23.1973 32.1172 23.3789 31.2734 23.3789C30.582 23.3789 29.9961 23.2324 29.5156 22.9395C29.0352 22.6465 28.6426 22.2422 28.3379 21.7266C28.0332 21.2227 27.8105 20.6309 27.6699 19.9512C27.541 19.2598 27.4766 18.5156 27.4766 17.7188ZM53.9492 27.3516C55.7891 27.3516 57.3828 26.9941 58.7305 26.2793C60.0781 25.5645 61.0625 24.7676 61.6836 23.8887L59.2402 21.252C58.6777 21.9785 57.9453 22.5234 57.043 22.8867C56.1406 23.25 55.209 23.4316 54.248 23.4316C53.5684 23.4316 52.9414 23.3262 52.3672 23.1152C51.793 22.9043 51.2832 22.6055 50.8379 22.2188C50.4043 21.8438 50.0586 21.4277 49.8008 20.9707C49.543 20.502 49.332 19.8867 49.168 19.125V19.0723H62.0703V16.998C62.0703 15.6035 61.877 14.332 61.4902 13.1836C61.1035 12.0234 60.541 11.0332 59.8027 10.2129C59.0527 9.39258 58.1387 8.75977 57.0605 8.31445C55.9941 7.85742 54.7754 7.62891 53.4043 7.62891C52.0801 7.62891 50.8555 7.86914 49.7305 8.34961C48.6055 8.83008 47.6328 9.50391 46.8125 10.3711C45.9922 11.2383 45.3535 12.2754 44.8965 13.4824C44.4395 14.6777 44.2109 16.002 44.2109 17.4551V18.1582C44.2109 19.4355 44.4395 20.6367 44.8965 21.7617C45.3652 22.875 46.0273 23.8418 46.8828 24.6621C47.7383 25.4941 48.7637 26.1504 49.959 26.6309C51.1543 27.1113 52.4844 27.3516 53.9492 27.3516ZM53.3691 11.584C53.9902 11.584 54.5352 11.6836 55.0039 11.8828C55.4844 12.0703 55.8887 12.3281 56.2168 12.6562C56.5449 12.9961 56.8027 13.3945 56.9902 13.8516C57.1777 14.3086 57.2715 14.7949 57.2715 15.3105V15.6973H49.2559C49.373 15.0762 49.5488 14.5137 49.7832 14.0098C50.0176 13.5059 50.3105 13.0723 50.6621 12.709C51.002 12.3457 51.4004 12.0703 51.8574 11.8828C52.3145 11.6836 52.8184 11.584 53.3691 11.584Z" fill="url(#paint0_linear_1_16)"/>
<defs>
<linearGradient id="paint0_linear_1_16" x1="11.5" y1="-10" x2="68.5" y2="44" gradientUnits="userSpaceOnUse">
<stop offset="0.00888359" stop-color="#572A93"/>
<stop offset="1" stop-color="#C93131"/>
</linearGradient>
</defs>
</svg>
